<svg width="230" height="27" viewBox="0 0 230 27" fill="none" xmlns="http://www.w3.org/2000/svg">
<path d="M1.42 25.962C0.989334 25.962 0.710667 25.6833 0.584 25.126C0.457333 24.8473 0.394 24.3407 0.394 23.606C0.394 21.402 0.368667 19.4387 0.318 17.716C0.242 15.2333 0.204 12.6113 0.204 9.85V1.49C0.204 1.262 0.305333 1.04666 0.508 0.843998C0.736 0.615999 0.964 0.502 1.192 0.502L5.562 0.539999C6.37267 0.565332 7.43667 0.577999 8.754 0.577999C10.654 0.577999 12.1233 0.565332 13.162 0.539999L14.568 0.502C16.088 0.451332 17.342 0.425999 18.33 0.425999C19.926 0.425999 21.446 0.653999 22.89 1.11C24.5873 1.61667 25.968 2.49067 27.032 3.732C28.2227 5.07467 28.818 6.886 28.818 9.166C28.818 13.0167 27.8427 15.8033 25.892 17.526C24.1693 19.1473 21.598 19.958 18.178 19.958H12.972C12.9973 20.5407 13.01 21.1613 13.01 21.82C13.01 22.048 12.9973 22.3267 12.972 22.656C12.972 22.96 12.972 23.378 12.972 23.91C12.972 24.746 12.7947 25.278 12.44 25.506C12.1613 25.734 11.642 25.848 10.882 25.848C9.76733 25.848 8.99467 25.8607 8.564 25.886C6.816 25.886 5.42267 25.9113 4.384 25.962H1.42ZM15.024 15.398C15.556 15.398 15.9487 14.8913 16.202 13.878C16.4047 13.194 16.5567 12.1807 16.658 10.838C16.7087 10.1033 16.734 9.28 16.734 8.368V7.95C16.734 7.54467 16.6707 6.93667 16.544 6.126C16.4427 5.67 16.3287 5.31533 16.202 5.062C16.0753 4.78333 15.9107 4.55533 15.708 4.378C15.5053 4.15 15.2773 4.036 15.024 4.036C14.8973 4.036 14.7833 4.08667 14.682 4.188C14.606 4.28933 14.53 4.416 14.454 4.568C14.1753 5.024 13.922 6.03733 13.694 7.608C13.618 8.064 13.5547 8.748 13.504 9.66C13.3773 11.0533 13.314 12.9153 13.314 15.246C13.314 15.246 13.3267 15.2587 13.352 15.284C13.3773 15.3093 13.428 15.3347 13.504 15.36L13.96 15.398H15.024ZM43.291 26.95C43.0883 26.95 42.8096 26.9247 42.455 26.874C42.2776 26.8233 41.999 26.798 41.619 26.798C40.6563 26.798 39.4656 26.5827 38.047 26.152H37.781C37.6036 26.152 37.4136 26.1013 37.211 26C37.1603 25.9493 37.097 25.9113 37.021 25.886C36.945 25.8353 36.8563 25.772 36.755 25.696L35.957 25.24C35.197 24.8093 34.5256 24.214 33.943 23.454C33.3603 22.6687 32.8916 21.8073 32.537 20.87C31.853 19.1473 31.511 17.3867 31.511 15.588C31.511 13.5867 31.9163 11.6613 32.727 9.812C33.5883 7.86133 34.741 6.316 36.185 5.176C37.781 3.90933 39.5543 3.276 41.505 3.276C42.113 3.276 42.5816 3.30133 42.911 3.352C42.911 3.30133 42.949 3.276 43.025 3.276H43.139C44.9123 3.276 46.4956 3.33933 47.889 3.466C49.0796 3.64333 50.1816 4.01067 51.195 4.568C53.2216 5.91067 54.6783 7.38 55.565 8.976C56.5023 10.7493 56.971 12.8393 56.971 15.246C56.971 17.6527 56.401 19.9073 55.261 22.01L54.881 22.618C54.7796 22.77 54.7163 22.846 54.691 22.846L54.577 23.036L54.311 23.188C53.2216 24.8093 51.575 25.9113 49.371 26.494C47.9016 26.798 45.875 26.95 43.291 26.95ZM43.937 24.1C44.165 24.1 44.3423 23.9607 44.469 23.682C44.773 23.226 45.0263 22.3393 45.229 21.022C45.2543 20.794 45.3176 20.2873 45.419 19.502C45.5203 18.7167 45.5836 17.982 45.609 17.298C45.7103 15.5753 45.761 14.5113 45.761 14.106V13.232V12.928C45.761 12.016 45.723 11.2307 45.647 10.572C45.571 9.53333 45.419 8.71 45.191 8.102C44.963 7.798 44.7856 7.646 44.659 7.646C44.4056 7.646 44.165 7.836 43.937 8.216C43.709 8.596 43.5316 9.29267 43.405 10.306L42.607 16.386V17.146V17.64C42.683 18.704 42.721 19.4007 42.721 19.73L42.797 20.642L42.911 21.858C42.911 22.0607 42.9363 22.238 42.987 22.39L43.405 23.796C43.4303 23.8973 43.4936 23.9733 43.595 24.024C43.7216 24.0747 43.8356 24.1 43.937 24.1ZM78.3225 26.418C77.2078 25.3287 76.2578 24.2267 75.4725 23.112C74.9152 22.3773 74.0538 21.0727 72.8885 19.198L72.2425 18.172C72.2172 18.1467 72.1918 18.134 72.1665 18.134C72.1665 18.1087 72.1665 18.096 72.1665 18.096H71.9765L71.8245 18.172C71.7992 18.5013 71.7865 19.388 71.7865 20.832C71.7865 21.7693 71.7358 22.8713 71.6345 24.138L71.5965 25.278C71.4952 25.5567 71.4318 25.696 71.4065 25.696H71.1405H71.0265C68.2398 25.8987 66.2132 26 64.9465 26H64.3765H63.6545C63.3758 26 63.1732 25.9873 63.0465 25.962H62.7805L61.6025 25.582L61.5265 25.316C61.4758 25.316 61.4378 25.2653 61.4125 25.164C61.4125 25.0627 61.4125 24.9867 61.4125 24.936C61.3365 23.872 61.2732 23.0993 61.2225 22.618C61.1212 21.25 61.0578 20.2493 61.0325 19.616C60.9818 19.008 60.9565 18.6153 60.9565 18.438L60.7665 16.348L60.7285 15.208C60.7032 14.98 60.6905 14.6633 60.6905 14.258V13.916C60.7412 13.7893 60.7665 13.5867 60.7665 13.308V12.662C60.7918 12.5607 60.8045 12.4467 60.8045 12.32L60.7665 12.016V11.636C60.7665 11.4587 60.7412 11.3193 60.6905 11.218V10.99L60.7285 10.04C60.7538 9.86267 60.7665 9.59667 60.7665 9.242C60.8172 8.482 60.8425 7.76 60.8425 7.076V6.696C60.8172 6.62 60.8045 6.45533 60.8045 6.202V5.67V5.29C60.7285 5.214 60.6905 5.138 60.6905 5.062C60.6905 4.70733 61.0072 4.454 61.6405 4.302C61.9698 4.20066 62.4385 4.15 63.0465 4.15C68.9745 4.15 73.4078 4.35267 76.3465 4.758C79.2345 5.16333 81.2612 5.86 82.4265 6.848C82.9332 7.32933 83.2878 7.89933 83.4905 8.558C83.7185 9.19133 83.8325 9.95133 83.8325 10.838C83.8325 12.2567 83.4272 13.4473 82.6165 14.41C82.0845 14.942 81.4638 15.3853 80.7545 15.74C80.9065 16.12 81.3498 16.88 82.0845 18.02C82.2365 18.1973 82.3758 18.3873 82.5025 18.59C82.6545 18.7927 82.8318 19.008 83.0345 19.236C83.5158 19.8947 84.0732 20.6167 84.7065 21.402C84.7318 21.5033 84.8332 21.7187 85.0105 22.048C85.1372 22.0987 85.2005 22.162 85.2005 22.238C85.2258 22.2887 85.2132 22.3647 85.1625 22.466C84.9598 22.77 84.3645 23.2133 83.3765 23.796C83.2498 23.9227 83.0978 24.0493 82.9205 24.176C82.4138 24.5813 81.7172 24.9993 80.8305 25.43C80.0198 25.8607 79.3232 26.1647 78.7405 26.342C78.5125 26.4687 78.3732 26.494 78.3225 26.418ZM71.4065 13.042C71.7358 13.042 72.1792 12.9787 72.7365 12.852C73.2685 12.7 73.6485 12.548 73.8765 12.396C74.2565 12.168 74.5858 11.9147 74.8645 11.636C75.1432 11.3067 75.2825 10.9267 75.2825 10.496C75.2825 9.78667 75.0672 9.21667 74.6365 8.786C74.2565 8.482 73.7878 8.33 73.2305 8.33H71.5965C71.5965 8.65933 71.5712 9.17867 71.5205 9.888L71.4825 10.686C71.4318 11.1927 71.4065 11.978 71.4065 13.042ZM100.325 26.114H98.5765H96.6005H94.0925C93.8645 25.7593 93.7125 25.1133 93.6365 24.176C93.5352 23.34 93.4845 22.124 93.4845 20.528L93.5225 16.348C93.5478 15.3347 93.5605 13.726 93.5605 11.522L93.4465 11.408H89.6845C89.1272 11.408 88.7598 10.7747 88.5825 9.508C88.4812 8.824 88.4305 7.82333 88.4305 6.506V6.012C88.4812 5.83467 88.5065 5.556 88.5065 5.176V4.416L88.5445 4.112L88.6965 3.96L89.3805 3.998H90.1405C91.2552 3.998 92.1038 3.98533 92.6865 3.96H95.1565H95.8405H97.1325H98.7665H100.401C100.73 3.98533 101.199 3.998 101.807 3.998H102.757C102.858 3.94733 103.023 3.922 103.251 3.922C103.428 3.87133 103.593 3.846 103.745 3.846C104.226 3.846 104.593 3.87133 104.847 3.922C105.353 3.97266 105.733 3.998 105.987 3.998L106.975 3.96H108.457C109.217 3.96 109.736 3.97266 110.015 3.998L110.547 4.036C110.572 4.06133 110.61 4.09933 110.661 4.15C110.711 4.17533 110.737 4.20067 110.737 4.226V10.686C110.737 10.838 110.648 11.0027 110.471 11.18C110.319 11.3573 110.167 11.4713 110.015 11.522C109.179 11.3447 108.089 11.256 106.747 11.256H105.303C104.923 11.256 104.669 11.7373 104.543 12.7C104.492 12.9787 104.467 13.384 104.467 13.916V15.056C104.467 15.5627 104.479 15.9427 104.505 16.196V17.26C104.505 18.2987 104.454 19.2613 104.353 20.148C104.302 20.8067 104.277 21.288 104.277 21.592C104.226 21.896 104.201 22.314 104.201 22.846C104.201 23.606 104.175 24.2393 104.125 24.746C104.099 25.5313 103.808 25.9493 103.251 26C102.643 26.076 102.288 26.114 102.187 26.114H100.325ZM115.803 26.418C115.271 26.418 114.929 25.924 114.777 24.936C114.701 24.5053 114.663 24.1127 114.663 23.758V22.922C114.587 22.086 114.549 21.2753 114.549 20.49C114.447 18.1593 114.359 16.5127 114.283 15.55C114.283 15.1193 114.257 14.6633 114.207 14.182C114.156 13.6753 114.118 13.3207 114.093 13.118V1.11C114.093 0.881999 114.181 0.742666 114.359 0.692H114.587L114.701 0.729999C115.587 0.729999 116.753 0.691999 118.197 0.615998C120.122 0.565332 121.731 0.539999 123.023 0.539999H123.403C123.555 0.565332 123.808 0.577999 124.163 0.577999H124.847H125.227C125.987 0.577999 126.582 0.590665 127.013 0.615998H130.927C131.408 0.666666 132.193 0.692 133.283 0.692C133.485 0.692 133.637 0.704666 133.739 0.729999C133.941 0.780665 134.169 0.805998 134.423 0.805998C134.524 0.805998 134.625 0.767999 134.727 0.692C135.309 0.692 135.626 1.224 135.677 2.288C135.727 2.64267 135.753 2.90867 135.753 3.086C135.753 3.238 135.727 3.542 135.677 3.998C135.651 4.40333 135.639 5.04933 135.639 5.936C135.639 6.21467 135.398 6.37933 134.917 6.43C134.79 6.45533 134.575 6.468 134.271 6.468H133.739H132.029L130.889 6.506C130.635 6.582 130.243 6.62 129.711 6.62C129.179 6.62 128.875 6.60733 128.799 6.582C128.723 6.60733 128.659 6.63267 128.609 6.658C128.583 6.68333 128.558 6.696 128.533 6.696C128.533 6.74667 128.52 6.79733 128.495 6.848C128.469 6.89867 128.457 6.97467 128.457 7.076C128.431 7.25333 128.368 7.912 128.267 9.052C128.241 9.38133 128.229 9.964 128.229 10.8L128.191 10.876C128.191 10.9773 128.241 11.0913 128.343 11.218H132.903C133.207 11.218 133.422 11.256 133.549 11.332C133.701 11.408 133.815 11.5473 133.891 11.75C133.992 12.054 134.043 12.8393 134.043 14.106V15.93V16.956C133.992 17.184 133.916 17.336 133.815 17.412C133.739 17.488 133.625 17.526 133.473 17.526C133.27 17.526 133.08 17.5513 132.903 17.602L131.193 17.716H130.433C130.053 17.716 129.799 17.7413 129.673 17.792C129.495 17.8427 129.255 17.8807 128.951 17.906H128.419C128.013 17.906 127.735 17.9567 127.583 18.058C127.456 18.0833 127.329 18.21 127.203 18.438C127.203 20.7433 127.177 22.314 127.127 23.15C127.101 24.366 126.975 25.2527 126.747 25.81C126.291 25.81 125.632 25.8353 124.771 25.886C124.365 25.886 124.099 25.9113 123.973 25.962H123.593H123.517C123.415 25.962 123.339 25.9493 123.289 25.924C123.238 25.8987 123.187 25.886 123.137 25.886L123.023 25.848C123.023 25.8227 122.972 25.81 122.871 25.81C122.845 25.81 122.795 25.8227 122.719 25.848C122.668 25.8733 122.617 25.9113 122.567 25.962H119.413C119.387 25.9873 119.324 26 119.223 26C119.147 26.0253 119.033 26.0633 118.881 26.114L116.563 26.38L115.803 26.418ZM150.5 26.95C150.297 26.95 150.019 26.9247 149.664 26.874C149.487 26.8233 149.208 26.798 148.828 26.798C147.865 26.798 146.675 26.5827 145.256 26.152H144.99C144.813 26.152 144.623 26.1013 144.42 26C144.369 25.9493 144.306 25.9113 144.23 25.886C144.154 25.8353 144.065 25.772 143.964 25.696L143.166 25.24C142.406 24.8093 141.735 24.214 141.152 23.454C140.569 22.6687 140.101 21.8073 139.746 20.87C139.062 19.1473 138.72 17.3867 138.72 15.588C138.72 13.5867 139.125 11.6613 139.936 9.812C140.797 7.86133 141.95 6.316 143.394 5.176C144.99 3.90933 146.763 3.276 148.714 3.276C149.322 3.276 149.791 3.30133 150.12 3.352C150.12 3.30133 150.158 3.276 150.234 3.276H150.348C152.121 3.276 153.705 3.33933 155.098 3.466C156.289 3.64333 157.391 4.01067 158.404 4.568C160.431 5.91067 161.887 7.38 162.774 8.976C163.711 10.7493 164.18 12.8393 164.18 15.246C164.18 17.6527 163.61 19.9073 162.47 22.01L162.09 22.618C161.989 22.77 161.925 22.846 161.9 22.846L161.786 23.036L161.52 23.188C160.431 24.8093 158.784 25.9113 156.58 26.494C155.111 26.798 153.084 26.95 150.5 26.95ZM151.146 24.1C151.374 24.1 151.551 23.9607 151.678 23.682C151.982 23.226 152.235 22.3393 152.438 21.022C152.463 20.794 152.527 20.2873 152.628 19.502C152.729 18.7167 152.793 17.982 152.818 17.298C152.919 15.5753 152.97 14.5113 152.97 14.106V13.232V12.928C152.97 12.016 152.932 11.2307 152.856 10.572C152.78 9.53333 152.628 8.71 152.4 8.102C152.172 7.798 151.995 7.646 151.868 7.646C151.615 7.646 151.374 7.836 151.146 8.216C150.918 8.596 150.741 9.29267 150.614 10.306L149.816 16.386V17.146V17.64C149.892 18.704 149.93 19.4007 149.93 19.73L150.006 20.642L150.12 21.858C150.12 22.0607 150.145 22.238 150.196 22.39L150.614 23.796C150.639 23.8973 150.703 23.9733 150.804 24.024C150.931 24.0747 151.045 24.1 151.146 24.1ZM178.463 26.19L177.969 26.114H177.361C176.981 26.0633 176.323 26.0127 175.385 25.962C175.183 25.962 174.993 25.9493 174.815 25.924C174.638 25.8987 174.473 25.886 174.321 25.886H173.485L173.105 25.848C172.295 25.848 171.699 25.8607 171.319 25.886C170.939 25.9367 170.344 25.962 169.533 25.962H168.773L168.089 26L167.975 25.848V25.43V24.48V23.492V22.846V20.262C167.975 19.654 167.95 19.2107 167.899 18.932V18.02L168.051 16.386C168.127 15.3727 168.165 13.916 168.165 12.016C168.216 8.95067 168.406 6.734 168.735 5.366C168.913 4.63133 169.204 4.16267 169.609 3.96L174.055 3.998C174.435 4.02333 174.98 4.036 175.689 4.036H177.513C177.64 4.06133 177.868 4.08667 178.197 4.112C178.552 4.13733 178.818 4.20066 178.995 4.302C179.147 4.42867 179.249 4.606 179.299 4.834C179.375 5.03667 179.413 5.34067 179.413 5.746L179.375 6.05V6.506C179.299 6.68333 179.261 6.86067 179.261 7.038C179.211 7.24067 179.198 7.44333 179.223 7.646V8.216C179.249 8.34267 179.261 8.52 179.261 8.748L179.299 9.052V9.926L179.337 11.142C179.363 11.3953 179.375 11.75 179.375 12.206C179.426 12.5607 179.489 12.8013 179.565 12.928C179.565 13.1053 179.553 13.2953 179.527 13.498C179.502 13.7007 179.489 13.9033 179.489 14.106C179.464 14.41 179.451 14.866 179.451 15.474C179.451 16.0567 179.464 16.4873 179.489 16.766C179.489 17.1713 179.553 17.5893 179.679 18.02C179.933 18.1213 180.224 18.172 180.553 18.172C181.389 18.172 182.251 18.1593 183.137 18.134C184.049 18.1087 184.86 18.0327 185.569 17.906C185.721 17.9313 185.861 18.0327 185.987 18.21C186.139 18.3873 186.215 18.5393 186.215 18.666L185.949 25.202C185.899 25.354 185.797 25.4553 185.645 25.506C185.215 25.7087 184.619 25.8353 183.859 25.886C182.846 26.038 182.175 26.114 181.845 26.114H181.199C180.693 26.114 180.313 26.1267 180.059 26.152C179.553 26.2027 179.198 26.228 178.995 26.228L178.463 26.19ZM190.906 26.494C190.45 26.494 190.158 26.038 190.032 25.126C189.956 24.746 189.918 24.404 189.918 24.1C189.918 23.6947 189.905 23.4413 189.88 23.34C189.854 22.6053 189.791 21.44 189.69 19.844L189.576 18.4C189.424 16.1707 189.348 14.524 189.348 13.46V4.226C189.348 4.02333 189.576 3.87133 190.032 3.77C190.285 3.694 190.64 3.656 191.096 3.656C191.4 3.656 191.729 3.68133 192.084 3.732C192.438 3.75733 192.704 3.77 192.882 3.77C193.262 3.82067 193.857 3.846 194.668 3.846L194.82 3.732H196.492C196.568 3.808 196.656 3.846 196.758 3.846H196.91C196.935 3.82067 196.998 3.808 197.1 3.808C197.15 3.78267 197.226 3.77 197.328 3.77C197.353 3.74467 197.378 3.732 197.404 3.732C197.429 3.732 197.442 3.732 197.442 3.732C197.518 3.732 197.606 3.75733 197.708 3.808C197.809 3.83333 197.885 3.846 197.936 3.846H200.748L200.862 10.382C200.862 10.4073 200.836 10.496 200.786 10.648C200.76 10.7747 200.735 10.952 200.71 11.18C200.634 12.092 200.596 12.814 200.596 13.346V20.756L200.482 22.2C200.406 22.8333 200.38 23.3527 200.406 23.758C200.406 24.29 200.38 24.7207 200.33 25.05C200.304 25.354 200.228 25.5947 200.102 25.772C199.95 25.9493 199.709 26.038 199.38 26.038L199.342 26L199.228 25.962C199.177 25.962 199.152 25.9747 199.152 26H198.962C198.81 26.0507 198.721 26.0887 198.696 26.114C198.569 26.114 198.278 26.076 197.822 26L197.29 25.962C197.163 25.962 197.087 26.0127 197.062 26.114H194.212H193.68L192.692 26.304L191.78 26.418L190.906 26.494ZM216.295 26.95C216.092 26.95 215.814 26.9247 215.459 26.874C215.282 26.8233 215.003 26.798 214.623 26.798C213.66 26.798 212.47 26.5827 211.051 26.152H210.785C210.608 26.152 210.418 26.1013 210.215 26C210.164 25.9493 210.101 25.9113 210.025 25.886C209.949 25.8353 209.86 25.772 209.759 25.696L208.961 25.24C208.201 24.8093 207.53 24.214 206.947 23.454C206.364 22.6687 205.896 21.8073 205.541 20.87C204.857 19.1473 204.515 17.3867 204.515 15.588C204.515 13.5867 204.92 11.6613 205.731 9.812C206.592 7.86133 207.745 6.316 209.189 5.176C210.785 3.90933 212.558 3.276 214.509 3.276C215.117 3.276 215.586 3.30133 215.915 3.352C215.915 3.30133 215.953 3.276 216.029 3.276H216.143C217.916 3.276 219.5 3.33933 220.893 3.466C222.084 3.64333 223.186 4.01067 224.199 4.568C226.226 5.91067 227.682 7.38 228.569 8.976C229.506 10.7493 229.975 12.8393 229.975 15.246C229.975 17.6527 229.405 19.9073 228.265 22.01L227.885 22.618C227.784 22.77 227.72 22.846 227.695 22.846L227.581 23.036L227.315 23.188C226.226 24.8093 224.579 25.9113 222.375 26.494C220.906 26.798 218.879 26.95 216.295 26.95ZM216.941 24.1C217.169 24.1 217.346 23.9607 217.473 23.682C217.777 23.226 218.03 22.3393 218.233 21.022C218.258 20.794 218.322 20.2873 218.423 19.502C218.524 18.7167 218.588 17.982 218.613 17.298C218.714 15.5753 218.765 14.5113 218.765 14.106V13.232V12.928C218.765 12.016 218.727 11.2307 218.651 10.572C218.575 9.53333 218.423 8.71 218.195 8.102C217.967 7.798 217.79 7.646 217.663 7.646C217.41 7.646 217.169 7.836 216.941 8.216C216.713 8.596 216.536 9.29267 216.409 10.306L215.611 16.386V17.146V17.64C215.687 18.704 215.725 19.4007 215.725 19.73L215.801 20.642L215.915 21.858C215.915 22.0607 215.94 22.238 215.991 22.39L216.409 23.796C216.434 23.8973 216.498 23.9733 216.599 24.024C216.726 24.0747 216.84 24.1 216.941 24.1Z" fill="#9D8640"/>
</svg>
